<?xml version="1.0" encoding="UTF-8"?>
<svg width="81px" height="94px" viewBox="0 0 81 94" version="1.1" xmlns="http://www.w3.org/2000/svg" xmlns:xlink="http://www.w3.org/1999/xlink">
    <title>claw</title>
    <g id="Page-1" stroke="none" stroke-width="1" fill="none" fill-rule="evenodd">
        <g id="claw" transform="translate(0.168706, 0.309279)" fill="#F79256" fill-rule="nonzero">
            <path d="M45.1379358,93.2134527 C44.7251098,92.8311328 43.6666582,91.6475838 43.3319422,91.1939997 C43.2406389,91.0702888 42.9640383,90.6778819 42.7172763,90.3220033 C42.4705132,89.966108 42.1445979,89.5285428 41.9930146,89.349631 C41.8414302,89.1707181 41.7174194,88.9807508 41.7174194,88.9274882 C41.7174194,88.8742323 41.6012152,88.6702301 41.459185,88.4741661 C41.3171448,88.2780953 41.0877491,87.9093421 40.9494037,87.6547089 C40.8110583,87.4000746 40.5973392,87.0427537 40.4744787,86.8606543 C40.3516082,86.6785537 40.1720343,86.3495911 40.0754067,86.1296137 C39.9787879,85.9096462 39.7313727,85.459553 39.5255928,85.1293979 C39.3198241,84.7992517 39.1514607,84.4846327 39.1514607,84.4302511 C39.1514607,84.3007522 38.6676246,83.3437856 38.535201,83.2113653 C38.4786783,83.1548403 38.3878453,82.9843704 38.3333433,82.8325408 C38.2788391,82.6807011 38.0495169,82.1966388 37.8237436,81.7568343 C37.5979625,81.3170309 37.4132349,80.9056249 37.4132349,80.8425941 C37.4132349,80.7795622 37.1897531,80.2935215 36.9166034,79.7625096 C36.6434547,79.2314999 36.4199641,78.7493658 36.4199641,78.6910931 C36.4199641,78.6328283 36.254852,78.2495265 36.0530478,77.8393209 C35.8512436,77.4291075 35.4165216,76.4975189 35.0870029,75.7691187 C34.7574853,75.0407197 34.4185038,74.3441297 34.3337119,74.2211366 C34.2489189,74.0981535 34.0881893,73.7909599 33.9765381,73.5384946 C33.7235545,72.9664693 32.7817251,71.5262005 32.5031696,71.2853982 C32.3889471,71.1866506 32.217804,71.0642872 32.1228694,71.0134745 C32.0195676,70.95819 31.9502405,70.8391637 31.9502405,70.7170734 C31.9502405,70.5959772 31.9024483,70.5130556 31.8326687,70.5130556 C31.7669818,70.5130556 31.6896866,70.3943001 31.6575599,70.2440432 C31.6259213,70.0960878 31.5731558,69.9377847 31.5403035,69.8922607 C31.5074523,69.8467355 31.3959182,69.577897 31.2924548,69.2948564 C31.174193,68.9712895 31.0462612,68.7617847 30.9478948,68.7305619 C30.8618356,68.7032479 30.7914307,68.6478475 30.7914307,68.607455 C30.7914307,68.5670614 30.6610635,68.509559 30.5017193,68.4796614 C30.3423841,68.4497727 30.2120158,68.4085354 30.2120158,68.3880326 C30.2120158,68.3675299 30.3459608,68.0760787 30.5096607,67.7403606 L30.8073046,67.1299636 L30.509488,66.6812782 C30.2018474,66.2178011 29.7595017,65.795014 29.5822284,65.795014 C29.5265382,65.795014 29.3637166,65.6469584 29.2203923,65.4660014 C28.9259897,65.0942767 27.8678546,63.0650834 27.7787704,62.7013548 C27.746705,62.5704515 27.5702654,62.1501154 27.3866623,61.7672572 C27.1409759,61.2549213 27.0531779,60.9681502 27.0540373,60.6809031 C27.0554862,60.2006348 27.012275,60.1328593 26.1319571,59.2345153 C25.523222,58.6133236 25.2651592,58.2683188 24.7871803,57.4367228 C24.7398751,57.3544231 24.6536699,57.229845 24.5955912,57.1598793 C24.5375292,57.0899124 24.5017422,56.8916682 24.516059,56.7193358 C24.5375827,56.4602744 24.6021472,56.3624976 24.8888157,56.154843 C25.2796466,55.8717355 25.2936903,55.8321923 25.1209901,55.5010519 C24.9595015,55.1914218 24.9646888,55.1388648 25.1628884,55.0759577 C25.4164427,54.9954837 25.3632436,54.8079082 24.9595015,54.3588516 C24.7565916,54.1331664 24.544239,53.8203998 24.487626,53.6638154 C24.4310041,53.5072321 24.3642216,53.3791185 24.3392204,53.3791185 C24.3142281,53.3791185 24.2898878,53.2953108 24.2851419,53.1928795 C24.2781646,53.0425646 23.9467233,51.1328468 23.7896618,50.3380866 C23.7660906,50.2187983 23.539575,50.0141207 23.1542948,49.7639637 C21.7787209,48.8708415 20.299095,47.4854782 19.9007742,46.7177188 C19.8306157,46.5824942 19.6956842,46.346411 19.6009302,46.1930879 C19.353914,45.7934095 19.1204802,44.8283622 19.1204802,44.2068383 C19.1204802,43.734517 19.1520742,43.6291075 19.3950054,43.2907412 C19.6602149,42.921345 19.8654319,42.4617009 19.8654319,42.2370656 C19.8654319,42.1773429 19.6978209,41.922693 19.4929561,41.6711773 C19.0992452,41.1878026 19.0199214,40.8621783 19.2627824,40.7262682 C19.550629,40.5651775 20.2899577,41.1914183 20.399218,41.688878 C20.4283755,41.8216025 20.5529926,42.0453874 20.6761618,42.1861749 C20.8729036,42.4110766 20.9252155,42.4314734 21.1070251,42.3541771 C21.2208408,42.3057897 21.4238131,42.2518862 21.5580824,42.2343962 C21.6923429,42.2169039 21.8259981,42.1640749 21.8550921,42.1169972 C21.8841872,42.0699205 22.016447,42.0187957 22.1489965,42.0033855 C22.2815561,41.9879752 22.4179354,41.9711205 22.4520829,41.9659288 C22.4862215,41.9607348 22.5141652,41.921886 22.5141652,41.8795876 C22.5141652,41.8372903 22.3186093,41.7607964 22.079607,41.7095992 C21.671751,41.6222359 21.628523,41.5880795 21.3760376,41.1538223 C21.0611255,40.6121862 21.0521598,40.5418917 21.2725719,40.3424259 C21.3636222,40.2600259 21.4381199,40.1656764 21.4381199,40.1327572 C21.4381199,40.099838 21.2157784,39.9897573 20.944033,39.8881307 C20.6722853,39.7865041 20.4069956,39.651595 20.3544943,39.5883335 C20.3019829,39.525072 20.2270696,39.473313 20.1880045,39.473313 C20.0648464,39.473313 19.1668056,38.8721926 19.0537078,38.7140533 C18.9197627,38.5267521 18.8049618,38.5230684 18.6096679,38.6998012 C18.4685973,38.82747 18.4471538,38.8266976 18.2943757,38.6884402 C18.0557713,38.4725087 18.0152395,38.093721 18.1626955,37.4578992 C18.3457903,36.6684043 18.3280071,36.2601024 18.0900626,35.7900938 C17.8923255,35.3995183 17.8910114,35.3844926 18.0363932,35.1759641 C18.4240641,34.6198852 18.2307085,33.6366557 17.6120034,33.0179573 L17.2728647,32.678813 L17.5727032,32.3717454 C17.9220347,32.0140043 17.886747,31.8806589 17.4303743,31.8338398 C17.1859417,31.808765 17.0833053,31.7489787 16.9948431,31.580145 C16.8871554,31.3746137 16.8943634,31.346135 17.0985439,31.1705068 L17.3179775,30.9817566 L16.8948683,30.4297236 C16.6621568,30.1261056 16.4717581,29.8463842 16.4717581,29.8081228 C16.4717581,29.7698603 16.3520541,29.5543333 16.2057506,29.3291786 C15.4244746,28.1268176 14.8597789,26.8671035 14.6000632,25.7472283 C14.5321839,25.4545455 14.3482086,25.0142941 14.1912274,24.7688907 C14.0342461,24.5234896 13.905806,24.3006187 13.905806,24.2736224 C13.905806,24.1837357 12.9061821,22.9701319 12.2059664,22.2099171 C11.4242625,21.3612278 9.45516857,19.5372504 8.72260246,18.9832624 C7.86307451,18.3332643 7.63832695,18.1917345 7.14603074,17.9904486 C6.6819833,17.8007153 6.66430245,17.7824484 6.69156404,17.5209461 C6.70716452,17.3712988 6.73375179,17.2346877 6.75064597,17.2173659 C6.76754138,17.2000464 6.95963889,17.2501046 7.17752986,17.3286102 C7.77897988,17.5453064 8.1117195,17.5822593 8.1117195,17.432359 C8.1117195,17.305 6.04195757,15.2943266 5.01434791,14.4234125 C4.69930497,14.1564097 4.24747782,13.770337 4.0102874,13.5654755 C2.71585,12.4474617 1.56182879,11.5878751 0.993271573,11.3182196 C0.788408964,11.2210558 0.602170927,11.1147992 0.579408018,11.0820907 C0.55664589,11.0493832 0.416967,10.9605967 0.269010547,10.8847872 C0.121054317,10.8089799 0,10.7310382 0,10.7115876 C0,10.5904269 0.20737644,10.2543387 0.28229727,10.2543387 C0.418682009,10.2543387 1.54191186,10.7919123 2.27624771,11.2092535 C2.54939749,11.3644915 2.83540654,11.4925515 2.91182325,11.4938322 C2.98824086,11.4951139 3.09998372,11.5442392 3.16014112,11.6030056 C3.22030052,11.661772 3.41850974,11.7880576 3.60061022,11.8836431 C3.7827107,11.9792276 4.19772484,12.2011923 4.52286646,12.3768986 C5.08064321,12.6783197 5.29459591,12.7964343 6.21573189,13.3114721 C6.57628772,13.5130701 7.14210217,13.8533144 8.64974238,14.7751259 C9.01394212,14.9978063 9.44228968,15.2763005 9.60162759,15.3939993 C9.7609656,15.5116971 10.0083863,15.6792078 10.1514531,15.7662467 C11.281228,16.4535644 13.018988,18.0365712 13.7325931,19.0284699 C13.8799778,19.2333336 14.0164919,19.3916356 14.0359581,19.3802535 C14.2104851,19.2782134 14.4240058,19.4325486 14.779647,19.9178069 C15.1506739,20.4240562 15.5331788,20.9130338 16.7009911,22.3739737 C18.4832942,24.6036493 19.4867991,25.5732887 20.6515128,26.1911779 C20.9527523,26.3509924 21.3875278,26.6112755 21.6176658,26.7695853 C21.8478128,26.9278929 22.0727334,27.0574175 22.1174939,27.0574175 C22.2430885,27.0574175 22.6797031,27.389211 22.6797031,27.4846427 C22.6797031,27.5407899 22.4136532,27.5495561 21.893368,27.510549 C21.2063434,27.4590408 21.1070251,27.4681491 21.1070251,27.5826592 C21.1070251,27.7248343 21.4195019,28.3170045 21.7616711,28.823266 C21.879623,28.9977952 22.0878839,29.3155517 22.2244538,29.529389 C22.7242184,30.3118787 23.6309229,31.3615965 23.8070381,31.3615965 C23.8622925,31.3615965 23.9230807,31.4081559 23.9421134,31.465061 C23.9645432,31.5321366 24.1255994,31.5641842 24.4000164,31.556177 L24.8233284,31.5438275 L25.3241976,32.1493482 C25.5996746,32.4823834 25.8250667,32.7926343 25.8250667,32.8387947 C25.8250667,32.8917486 25.7378305,32.8977016 25.5886736,32.854925 C25.4586586,32.8176366 25.2555872,32.8056136 25.1373812,32.8282084 L24.9224918,32.8692886 L25.2345795,33.2949535 C25.4062298,33.5290683 25.5744649,33.7951115 25.6084218,33.8861618 C25.6423977,33.9772121 25.8878467,34.4055598 26.1538609,34.838047 C26.4198852,35.2705354 26.7386459,35.9223692 26.8622119,36.2865693 C26.9857713,36.6507683 27.1227758,36.9936776 27.166667,37.0485908 C27.2105482,37.1035019 27.2272457,37.1795142 27.2037659,37.2175059 C27.1370559,37.3254455 27.8172815,40.3922823 28.0345695,40.9632242 C28.0605582,41.0315113 28.0925312,41.1669922 28.1056175,41.2642898 C28.1434665,41.5456362 28.873388,44.3100465 28.9793882,44.5735261 C29.0321972,44.7047694 29.0886664,44.9141583 29.1048836,45.0388323 C29.1400643,45.3092379 29.7074061,47.0940968 29.7958483,47.2125603 C29.8298241,47.2580854 29.8815107,47.4211233 29.910696,47.5748678 C29.9706238,47.8904598 30.3274242,48.6238655 30.6576952,49.1102796 C30.7790889,49.289051 30.8996132,49.5311607 30.9255463,49.6483012 C31.0044454,50.0047437 32.8670609,53.8403487 33.2465274,54.4278086 C33.3985376,54.6631473 33.5229273,54.8991458 33.5229273,54.952249 C33.5229273,55.00535 33.739736,55.2622703 34.0047271,55.5231808 L34.4865368,55.9975641 L34.4271518,56.5713627 C34.3537788,57.2801907 34.4027302,57.6183274 34.6480355,58.0971646 C34.9716681,58.7289147 35.1635369,58.9603089 35.4453358,59.058731 C35.5944202,59.110801 35.7090763,59.1891562 35.7001217,59.2328523 C35.6173115,59.6368285 35.5113927,61.9112692 35.5509459,62.4360405 C35.6129925,63.2591981 35.8179655,64.2868861 35.9668949,64.5215226 C36.323906,65.0839501 36.9993779,67.6273731 36.9993779,68.409242 C36.9993779,68.6265211 37.0991387,68.7966188 37.4753183,69.2206797 C37.8547034,69.6483665 37.9996672,69.8968494 38.189853,70.445533 C38.3210818,70.8241101 38.4785345,71.2150446 38.5397374,71.3142893 C38.6090366,71.4266292 38.6449038,71.7016827 38.6347812,72.0431364 C38.6252627,72.3644763 38.6556986,72.61536 38.7083002,72.6490483 C38.7576696,72.6806679 38.8236897,72.7887022 38.8550295,72.8891384 C38.9258602,73.1161768 39.3632716,73.4928747 39.5560733,73.4928747 C39.6350438,73.4928747 39.7777728,73.5656492 39.8732413,73.6545951 C40.0307096,73.801301 40.0425187,73.8792405 40.000393,74.4938439 C39.9431926,75.3284415 40.0664699,75.6071363 40.661829,75.989182 C41.0485492,76.237335 41.1094913,76.2505696 41.7959195,76.2354213 C42.7202366,76.2150188 42.908385,76.2878758 43.1176234,76.7471888 C43.2088554,76.9474571 43.417278,77.2714386 43.5807873,77.4671371 C43.8065239,77.7373321 43.8720569,77.8845763 43.8530956,78.0790165 C43.8305844,78.3098288 43.7975136,78.3376076 43.5177175,78.3607675 C43.1325466,78.3926423 43.1117106,78.5550103 43.4556442,78.8444163 C43.7866297,79.1229127 43.8080553,79.5741729 43.4970275,79.7158888 C43.2981837,79.8064832 43.2022359,80.1146866 43.3728719,80.1146866 C43.4934508,80.1146866 43.4732479,80.3686745 43.3309736,80.6414776 C43.1675267,80.9548628 43.1749799,81.177007 43.3680814,81.7491158 C43.4565147,82.0110663 43.5403191,82.3163071 43.5543282,82.4274288 C43.5731636,82.576842 43.6498792,82.64753 43.8488123,82.6988075 C44.0787229,82.7580643 44.1178236,82.8050206 44.1178236,83.0218438 C44.1178236,83.2082567 44.0726841,83.2873542 43.9475955,83.3200583 C43.8539739,83.3445413 43.7946903,83.4097165 43.8158607,83.4648861 C43.8370311,83.5200458 43.8810393,83.7787672 43.9136565,84.039816 C43.9803743,84.5737905 44.0103666,84.6105416 44.911701,85.2625092 C45.2457561,85.5041386 45.5203994,85.7287171 45.52202,85.7615783 C45.5235581,85.7944307 45.2286316,85.8130542 44.8664512,85.8029639 C44.2943357,85.787022 44.1922744,85.806029 44.0885669,85.947726 C43.8501787,86.2734361 43.8625852,86.7330312 44.1276397,87.3949642 C44.2638841,87.7352264 44.4071092,88.0521882 44.4459112,88.0993184 C44.5344068,88.2068311 44.7620816,88.8456544 45.2581893,90.3784938 C45.4718359,91.0386078 45.6658257,91.5973227 45.689261,91.620087 C45.7127129,91.6428512 45.7318927,91.7173399 45.7318927,91.7856338 C45.7318927,91.8539187 45.8026408,92.2344998 45.889118,92.6313516 C46.0173029,93.2196587 46.0268927,93.3763501 45.9410587,93.4797689 C45.768023,93.688264 45.5851533,93.6276307 45.1379358,93.213456 L45.1379358,93.2134527 Z M79.164234,82.1742992 C78.0787972,81.2337616 77.6914172,80.8581225 76.8204797,79.9015683 C76.3199906,79.351876 75.7419255,78.6814163 75.5359115,78.4116605 C75.3299053,78.1419124 75.0898709,77.8280893 75.0025143,77.7142758 C74.6748525,77.2874172 73.1087674,74.8519483 73.0585565,74.6911697 C73.029778,74.5990695 72.8387139,74.2638396 72.6339505,73.9462158 C72.4291748,73.6285852 72.2613922,73.3244779 72.2610846,73.2704106 C72.2610846,73.2163433 72.0370411,72.7702336 71.7638913,72.2790424 C71.4907415,71.7878534 71.2671862,71.3292515 71.267106,71.2599132 C71.2670235,71.1905817 71.1049364,70.8172432 70.9069073,70.4302822 C70.7088804,70.0433201 70.5203777,69.6178525 70.4880235,69.4847869 C70.4556694,69.3517302 70.2969962,68.9606297 70.1354051,68.615674 C69.7718493,67.8395396 69.664662,67.5821166 69.5296136,67.1607618 C69.4712529,66.9786623 69.3330713,66.6434336 69.2225426,66.415809 C69.112025,66.1881844 68.9656111,65.834331 68.8971723,65.6294672 C68.7910629,65.3118122 68.4675674,64.6176509 67.5997452,62.8453634 C67.5075536,62.6570891 67.2217455,62.2624208 66.9646145,61.9683213 C66.7074835,61.6742219 66.448441,61.3161052 66.3889579,61.1725123 C66.3294748,61.0289183 66.2480858,60.9114313 66.2080811,60.9114313 C66.1680754,60.9114313 66.135349,60.8345161 66.135349,60.740511 C66.135349,60.6465049 65.9534212,60.2274684 65.731063,59.8093181 C65.5087114,59.3911677 65.3028602,58.9455095 65.2736213,58.8189675 C65.2443825,58.6924233 65.1208866,58.5061843 64.9991953,58.4051027 C64.0976971,57.6563369 64.0235082,57.5559219 63.9182414,56.9420864 C63.7879277,56.1821447 63.790265,56.1052752 63.941875,56.1634553 C64.1227607,56.2328682 64.094564,56.1268602 63.8537951,55.8322726 C62.4284004,54.088271 61.9633172,53.3503199 61.7404853,52.4790615 C61.5331316,51.6683204 60.7248838,50.0487107 60.3738236,49.7404761 C60.0420501,49.4491709 59.5565566,48.7842529 59.3972481,48.4029752 C59.2969345,48.1628951 59.2964006,48.0908964 59.3936369,47.9152537 C59.5476845,47.6369423 59.5412824,47.5850328 59.3528977,47.5850328 C59.1613711,47.5850328 59.1374388,47.5497351 59.0681563,47.1650111 C59.0205179,46.9004882 59.0390991,46.8567753 59.2435204,46.7523378 C59.568574,46.5862771 59.9321767,46.3381297 60.1964343,46.1020008 C60.4965414,45.8338421 60.5077965,45.4057597 60.2226304,45.1063827 C60.0751576,44.9515615 59.962937,44.6411813 59.8036641,43.9475796 C59.684027,43.4265409 59.5628239,42.9625199 59.5343363,42.916423 C59.5058498,42.8703249 59.4734667,42.756536 59.4623832,42.6635609 C59.4513043,42.5705857 59.3541739,42.2337809 59.2465531,41.915106 L59.0508803,41.3356978 L58.5993426,41.2794671 C58.3509956,41.2485396 57.9988208,41.2087122 57.8167213,41.1909625 C57.3908736,41.1494543 56.9743796,40.9296596 56.9045197,40.709574 C56.8743747,40.6145937 56.8715047,40.5150926 56.8981777,40.4884641 C56.9248174,40.4618334 56.8688932,40.3856204 56.7739318,40.3191021 C56.6104392,40.2045831 54.9611192,38.0359443 54.9611192,37.9354836 C54.9611192,37.909438 54.8101968,37.6297189 54.6257422,37.3138839 C54.2041322,36.5919885 54.0526581,36.0964783 54.0515168,35.435487 C54.0504022,34.8263417 54.1914817,34.4379473 54.5025373,34.1932752 C54.6758628,34.0569371 54.7132515,33.9746475 54.6686726,33.8275949 C54.5820606,33.5418571 54.2982253,33.0828628 54.0713107,32.8616047 L53.8694619,32.6647804 L54.0362314,32.4980054 L54.2030098,32.3312314 L54.876354,33.0000627 C55.6005054,33.7193678 56.1616467,34.0593457 56.4890823,33.9771631 C56.7731973,33.9058554 57.0559013,33.4712415 57.0559013,33.1057809 C57.0559013,32.7419999 56.6197125,32.011647 56.1944444,31.6633632 C55.7137682,31.269718 55.6801279,31.2450746 55.0730233,30.8422119 C54.3755116,30.3793578 53.6073688,30.1083168 53.1866192,30.1765917 C52.7293225,30.2508029 52.7427343,30.0632342 53.253628,29.2396018 C54.0862428,27.8973049 54.1296725,27.2606661 53.4497445,26.3642404 C52.5878451,25.2279117 52.526523,25.1300346 52.5425329,24.9161572 C52.5514941,24.7963875 52.6572614,24.6121748 52.7775516,24.5067965 C53.0407404,24.2762349 53.0680321,24.3440729 52.1388074,22.9187808 C51.7677984,22.3497181 51.436279,21.8282515 51.4020947,21.7599654 C51.0638756,21.0843943 50.9272946,20.833933 50.7066294,20.4846639 C50.5654953,20.2612613 50.4596946,20.0459628 50.4715393,20.0062224 C50.505669,19.8916544 50.2482827,19.4423302 50.148532,19.4423302 C50.094925,19.4423302 50.0789876,19.5180238 50.1093132,19.6285682 C50.2526296,20.1510613 50.2568316,20.4039246 50.1240101,20.5141513 C50.0118261,20.6072513 49.9547506,20.6077083 49.7850018,20.5168597 C49.6727532,20.4567781 49.5808982,20.3738007 49.5808982,20.3324631 C49.5808982,20.2911265 49.3760323,19.9140084 49.1256478,19.4944258 C48.8752634,19.0748433 48.6703986,18.6828912 48.6703986,18.6234192 C48.6703986,18.5639473 48.4655338,18.1534742 48.2151493,17.7112533 C47.9647638,17.2690324 47.7599001,16.8500105 47.7599001,16.7800905 C47.7599001,16.7101715 47.6488375,16.4890572 47.5130924,16.2887254 C47.3773361,16.0883935 47.2655947,15.8805862 47.264771,15.8269324 C47.2638794,15.7732775 47.2154474,15.6801585 47.1570053,15.62 C47.0985722,15.5598415 46.9464717,15.2957109 46.8190292,15.0330405 C46.6733409,14.7327784 46.4466258,14.440819 46.2084282,14.2466998 C44.1311596,12.5538999 42.6286335,10.9372885 41.9573992,9.67291542 C41.847994,9.46682342 41.5934889,9.1025275 41.3918218,8.86336805 C41.0335792,8.43851014 38.9272166,6.47369289 38.3682576,6.0429901 C38.2135401,5.92376649 37.7398278,5.54512811 37.3155829,5.20156789 C36.0240229,4.15566982 33.9043678,2.63947563 33.7337496,2.63947563 C33.696994,2.63947563 33.4948644,2.51814322 33.284567,2.36985017 C32.7118162,1.96596759 32.0048417,1.60678983 31.9726592,1.70333168 C31.8969133,1.93058292 31.7326605,2.05461373 31.5663725,2.0101441 C31.4033067,1.96653937 31.3902572,1.91171303 31.4008257,1.31478131 C31.4108681,0.747744944 31.3890245,0.641950942 31.2260602,0.468271025 C31.0188045,0.247382939 30.9974792,0.148970821 31.1284996,0.0179549172 C31.2207536,-0.0743013582 32.1752336,0.202228947 32.9435938,0.543818585 C33.1484586,0.634894516 33.6885455,0.848665989 34.1437958,1.01886618 C35.3507344,1.47009513 35.0611134,1.28893636 37.6609655,3.21888276 C38.3048991,3.69689626 39.08455,4.27423472 39.3935136,4.50185934 C40.0368109,4.97579681 40.8865144,5.6218404 41.8416553,6.36321764 C43.0211384,7.27873288 43.3845772,7.55857907 43.8317224,7.89553762 C44.3759856,8.30568749 46.935298,10.3682336 47.4987388,10.8507846 C47.7271469,11.0463984 48.2005338,11.4485545 48.5506979,11.7444674 C49.7686486,12.7736857 51.94595,14.7852018 52.6353208,15.5180725 C53.5675982,16.5091832 54.4755979,17.6646972 54.6712083,18.1089444 C54.7768284,18.3488127 54.9166574,18.5114828 55.0824226,18.5873246 C55.430712,18.746681 55.8912043,19.0217501 56.0245508,19.1500988 C56.2086253,19.3272796 55.9976302,19.6366678 55.7372748,19.5713243 L55.5337697,19.5202452 L55.6735808,19.7916818 C55.7504692,19.9409724 55.8984312,20.1750271 56.0023661,20.3118032 C56.106311,20.4485815 56.2333367,20.6720665 56.2846432,20.8084391 C56.3359597,20.9448128 56.5154321,21.2699746 56.6834968,21.5310211 C56.9767859,21.9866081 57.0362512,22.0294817 58.165315,22.5995252 C58.8122547,22.9261549 59.3231484,23.2232225 59.3006182,23.2596772 C59.2780981,23.2961318 59.0569882,23.3898426 58.8092754,23.4679259 C58.3908899,23.5998123 58.3624558,23.6250308 58.4089272,23.8230488 C58.4364362,23.9402862 58.4913841,24.0715919 58.5310275,24.11484 C58.57068,24.1580891 58.6031154,24.2585487 58.6031154,24.3380843 C58.6031154,24.5261044 58.9732016,25.2201966 59.2069252,25.4705152 C59.4424222,25.7227276 59.7835036,25.8985909 60.0371771,25.8985909 C60.2446044,25.8985909 60.3413402,26.1281037 60.3413402,26.6202545 C60.3413402,26.7513931 60.3976812,26.8393203 60.4986101,26.8657147 C60.6110403,26.8951152 60.6714919,27.0109126 60.7106194,27.2718298 C60.7424586,27.484149 60.8095565,27.6368168 60.8710413,27.6368168 C60.9798391,27.6368168 61.2420415,28.5275894 61.7964641,30.7808507 C61.9586961,31.4402314 62.1262537,32.0216682 62.168785,32.0729279 C62.2113365,32.1241876 62.2607861,32.3182131 62.2786974,32.504091 C62.3142393,32.8730938 62.6357263,33.9215086 62.751994,34.047559 C62.7918827,34.0908082 62.8245266,34.1802713 62.8245266,34.2463661 C62.8245266,34.3823664 63.6420377,36.5725769 63.7407853,36.7011441 C63.776054,36.747066 63.8645062,37.0450487 63.9373275,37.3633246 C64.13359,38.2210766 64.4882359,39.4206868 64.5721138,39.5105534 C64.6124918,39.5538015 64.6455236,39.6479548 64.6455236,39.719783 C64.6455236,39.9897684 65.0902066,41.2008355 65.494856,42.0328706 C65.7420984,42.5412331 66.1290895,43.1593051 66.437021,43.5376192 L66.9595955,44.1796425 L66.8305134,44.4885804 C66.7493249,44.6828901 66.7207927,44.900702 66.7536094,45.0756113 C66.8510697,45.5951675 67.5014579,46.1511918 68.1840476,46.2985263 C68.3320096,46.3304614 68.4530589,46.3908784 68.4530589,46.4327868 C68.4530589,46.474694 68.5100966,46.508983 68.5798227,46.508983 C68.7877749,46.508983 68.7959793,46.6845756 68.6201182,47.372192 C68.5219056,47.7562004 68.4530589,48.2943446 68.4530589,48.6780733 C68.4530589,49.2624447 68.4745369,49.3522579 68.6582492,49.5359612 C68.8867566,49.7644686 69.0905436,49.7516576 69.610656,49.4760947 C70.0125167,49.2631781 70.0528836,49.2803449 69.9811044,49.6336489 C69.946413,49.8043684 69.9140957,50.0185423 69.9092606,50.1095926 C69.9044568,50.2006418 69.8770146,50.3123865 69.8483364,50.3579117 C69.8196671,50.4034346 69.7118211,50.8384642 69.6086899,51.324642 C69.4238106,52.196285 69.4230683,52.223385 69.555356,53.269798 C69.7107701,54.4990851 69.9656374,55.5656877 70.1473835,55.7474394 C70.2170539,55.817112 70.274057,55.9061928 70.274057,55.9453994 C70.274057,55.9846038 70.3458462,56.0394669 70.4336007,56.0673159 C70.5213362,56.0951648 70.6654406,56.2405087 70.7538193,56.390302 C70.890543,56.6220272 70.9130364,56.8097742 70.9045968,57.6489149 L70.894677,58.6351761 L71.2491523,58.9960904 C71.4441096,59.194592 71.6536824,59.4553276 71.7148697,59.5754986 C71.900129,59.9393331 72.1843633,61.3000407 72.233677,62.0591498 C72.2846847,62.8444729 72.4016424,63.116206 72.7233902,63.1969587 C72.840193,63.2262755 73.1201528,63.3392118 73.3455271,63.4479349 C73.8104655,63.6722314 73.989433,63.9495609 73.8581685,64.2423184 C73.7906448,64.3929075 73.8240845,64.5258249 74.030181,64.9258967 C74.1708893,65.1990442 74.3169956,65.4448789 74.3548546,65.4722018 C74.3927237,65.4995258 74.433961,65.5917676 74.4465023,65.677197 C74.477607,65.8891529 74.7240257,65.9426495 75.7136853,65.9522996 L76.5594209,65.9605809 L76.8931951,66.4026614 C77.0767714,66.6457965 77.2279657,66.8785962 77.2291695,66.9199907 C77.2304401,66.9613763 77.3980043,67.2159013 77.6016475,67.4856082 C77.9624147,67.963372 78.0366849,68.1141517 77.9098398,68.1112527 C77.8757012,68.110361 77.5777141,68.0396886 77.2476604,67.9539616 C76.6669704,67.8031239 76.6475644,67.8030002 76.6475644,67.9499937 C76.6475644,68.2055118 76.784579,68.4726106 77.0567056,68.7475247 C77.3028624,68.996215 77.3075982,69.0126952 77.1475296,69.0635012 C77.0546402,69.0929842 76.9786502,69.14586 76.9786502,69.181014 C76.9786502,69.2161579 76.8834258,69.2883037 76.7670477,69.3413278 C76.5302367,69.4492295 76.5649002,69.5752498 76.8625262,69.6884101 C77.0973265,69.7776804 77.1271283,70.0549597 76.9258312,70.2773948 C76.7370119,70.4860392 76.7390404,71.5051449 76.9288294,71.7948418 C77.0520243,71.9828597 77.1190698,72.0030816 77.622031,72.0039086 L78.1788355,72.0048003 L77.9081835,72.2180981 C77.3754039,72.6379615 77.3012785,73.0113748 77.5153966,74.1964386 C77.5812016,74.5606386 77.6363289,75.204949 77.6379228,75.628241 C77.6405532,76.3283229 77.6584601,76.414323 77.8361324,76.5801262 C77.9435537,76.6803718 78.0761479,76.9231592 78.130797,77.1196636 C78.2248533,77.4578793 78.2431269,77.4740787 78.4735714,77.4234632 C78.8225764,77.3468156 78.8621753,77.5384514 78.6399341,78.2285021 C78.3216526,79.2167239 78.3683058,80.0167304 78.7695044,80.450301 C78.8771174,80.5666055 78.9651695,80.6995798 78.9651695,80.7458004 C78.9651695,80.7920199 79.0878305,80.9762226 79.2377486,81.1551355 C79.3876656,81.3340484 79.6339495,81.6764461 79.7850613,81.9160146 C80.009866,82.2724349 80.0412148,82.3739712 79.957591,82.4747306 C79.7967967,82.6684764 79.6863237,82.6266427 79.164292,82.1742992 L79.164234,82.1742992 Z M56.9822385,76.6134823 C56.4455745,76.2301292 55.3284902,75.1608227 54.7598611,74.4861421 C53.2200712,72.6591843 52.6874275,71.72613 52.4266552,70.3989201 C52.3495406,70.0064452 52.2528226,69.6853283 52.2117212,69.6853283 C52.1706288,69.6853283 52.1590026,69.6497196 52.1859053,69.6061984 C52.2624214,69.4824028 52.0074371,68.9482622 51.651758,68.4872194 C51.4734882,68.2561585 51.2419024,67.9491979 51.1371071,67.8050733 C51.0323106,67.6609499 50.7320765,67.2816852 50.4699109,66.9622579 C49.7570592,66.0936822 49.6751006,65.9191641 49.588804,65.0861648 C49.5147789,64.3716412 49.269039,63.5684659 49.0459373,63.3118376 C48.9865624,63.2435493 48.8369519,62.9716914 48.7134583,62.7076968 C48.5899725,62.44371 48.3659379,62.0665886 48.2156041,61.8696473 C48.0652881,61.6727071 47.9004557,61.4334195 47.8493398,61.3378997 C47.7982228,61.2423722 47.5709292,60.9413589 47.3442419,60.6689726 C47.1175625,60.3965886 46.9320947,60.1478549 46.9320947,60.116233 C46.9320947,60.084609 46.5534062,59.6120692 46.0905689,59.066143 C45.6277404,58.5202146 45.2511339,58.0136767 45.2536886,57.940501 C45.2562187,57.8673264 45.1096387,57.3329573 44.9279193,56.753013 C44.5986804,55.7023066 44.5964456,55.6982696 44.2955862,55.6134598 C43.8610916,55.4909761 43.6398547,55.2738441 43.6141011,54.9446085 C43.5890364,54.6242183 43.6785931,54.2896182 43.7894005,54.2896182 C43.8302578,54.2896182 43.9034335,54.2153401 43.9520227,54.1245562 C44.0218747,53.9940329 43.9935598,53.859807 43.8166933,53.4830679 C43.693679,53.2210339 43.5621259,52.9942262 43.5243382,52.9790512 C43.4865594,52.9638761 43.4556442,52.8994153 43.4556442,52.8358061 C43.4556442,52.7721968 43.315959,52.5108215 43.1452417,52.2549701 C42.9745243,51.999122 42.7603516,51.6712997 42.6693013,51.5264785 C42.4162542,51.1239836 41.4942821,49.8401544 41.0437598,49.2629563 C40.8224415,48.9794019 40.6413741,48.7279798 40.6413741,48.7042403 C40.6413741,48.6805008 40.7717414,48.6610781 40.9310766,48.6610781 C41.0904107,48.6610781 41.2207802,48.6238298 41.2207802,48.5783047 C41.2207802,48.5327795 41.1880538,48.4955324 41.148048,48.4955324 C41.1080523,48.4955324 41.0278324,48.3744764 40.9697972,48.2265211 C40.8705882,47.9736144 40.608757,47.5438545 39.5200255,45.8468917 C39.2717944,45.4599764 39.0686962,45.0920848 39.0686962,45.029355 C39.0686962,44.9666251 38.9226178,44.6499821 38.7440772,44.325703 C38.0187388,43.0083092 37.3318391,40.247965 37.6946894,40.1087268 C37.758438,40.0842628 37.8341839,39.921975 37.8630071,39.7480867 C37.9211593,39.3973218 37.7231135,38.1159301 37.585049,37.9495719 C37.5182576,37.8690923 37.5669024,37.8057506 37.7861922,37.6876571 C38.0953363,37.5211707 38.1547291,37.324546 37.9477733,37.1527843 C37.673247,36.9249434 36.5488456,36.4107238 36.3251732,36.4107238 C36.195214,36.4107238 36.0888783,36.3764359 36.0888783,36.3345287 C36.0888783,36.2926204 35.9771368,36.2337893 35.8405581,36.2037926 C35.7039871,36.1737958 35.5922379,36.1366824 35.5922379,36.1213179 C35.5922379,36.1059544 35.7226051,35.8476442 35.8819403,35.5472975 C36.0691557,35.1943982 36.1716528,34.8878076 36.1716528,34.6806489 L36.1716528,34.3600881 L35.5925087,34.327364 C34.9855937,34.2930716 34.7159403,34.1504317 34.8074164,33.9120658 C34.8343447,33.8418616 34.9415676,33.7456151 35.0456663,33.6981851 C35.2624115,33.599432 35.5359514,33.0791869 35.5334246,32.77056 C35.532533,32.6557389 35.4285925,31.8507491 35.3025532,30.9816919 L35.0734016,29.4015875 L34.6499459,29.3262395 L34.226489,29.2508892 L34.0532449,28.1180715 C33.9472536,27.4249524 33.822583,26.8976141 33.7320666,26.7594615 C33.2381513,26.0056611 31.3164863,24.3441476 29.3254318,22.949395 C29.1589877,22.8328018 29.1121373,22.8345484 28.8081002,22.9686874 C28.6242341,23.0498112 28.4737922,23.140701 28.4737922,23.1706643 C28.4737922,23.2006288 28.1932895,23.2912031 27.8504515,23.3719402 C27.265885,23.5096024 27.2047256,23.5101864 26.8673201,23.3813361 C26.4198038,23.2104326 26.2688892,23.0461308 26.1953346,22.6497773 C26.134067,22.3196277 26.1599922,22.2913073 26.403921,22.421855 C26.4886772,22.4672175 26.6156762,22.4822097 26.6861346,22.4551722 C26.796952,22.4126497 26.799189,22.3763756 26.7026794,22.1864584 C26.6413116,22.0657034 26.5642605,21.7463073 26.5314449,21.4766908 C26.4487885,20.7976834 25.9433106,19.8678926 25.3002652,19.2120362 L24.7904125,18.6920319 L24.9766505,18.3679122 C25.2489398,17.8940271 25.2184693,17.7565266 24.7762228,17.4635941 C24.5635525,17.3227286 24.3400708,17.2074751 24.2795835,17.2074751 C24.219104,17.2074751 24.1696165,17.1790477 24.1696165,17.1443039 C24.1696165,17.109559 23.9088809,16.9543834 23.5902027,16.7994697 C23.2715322,16.6445549 23.0107967,16.4978301 23.0107967,16.4734118 C23.0107967,16.4489946 23.1293014,16.3067459 23.2741582,16.1573049 C23.418996,16.0078638 23.514284,15.862375 23.4859134,15.8339977 C23.4575249,15.8056204 23.0037971,15.7879119 22.4776002,15.7946451 C21.9514032,15.8013772 21.5208921,15.7739406 21.5208921,15.7336708 C21.5208921,15.6934009 21.5992016,15.5895841 21.6949064,15.5029677 C21.9818202,15.2433188 22.1002982,14.9250151 22.1002982,14.4138773 C22.1002982,13.9730084 22.0680522,13.8856317 21.7398654,13.4371881 C21.3776036,12.9421862 20.6212965,12.181598 20.3296825,12.0190171 C20.2109427,11.9528209 20.1864475,11.8786844 20.2282555,11.7120999 C20.2777051,11.5150984 20.3172761,11.4947874 20.612313,11.5150059 C20.7932176,11.5274057 20.9412877,11.5637968 20.9413613,11.5958767 C20.9414248,11.6279578 21.0811635,11.6798895 21.2518819,11.7112829 C21.4225982,11.7426751 21.5809013,11.7918294 21.6036566,11.8205132 C21.6580516,11.8890522 23.0396833,12.4066613 23.1682393,12.4066613 C23.222942,12.4066613 23.4054494,12.4779489 23.5738127,12.5650781 C24.468492,13.028096 24.7442231,13.1517066 24.8843786,13.1526027 C24.9692708,13.1530486 25.2622145,13.2839853 25.5353654,13.4433585 C25.8085151,13.6027305 26.3299762,13.8841962 26.6941763,14.068838 C27.0583752,14.2534776 27.4122331,14.4386511 27.4805191,14.4803343 C27.5488041,14.5220164 27.9771607,14.7865838 28.4324099,15.0682602 C28.8876592,15.3499343 29.4463741,15.6953469 29.6739931,15.8358424 C29.9016222,15.9763356 30.4539171,16.3703652 30.9013063,16.71146 C31.3487055,17.052557 31.7979427,17.3875059 31.8996128,17.4557942 C32.6464125,17.9573611 35.2723536,20.5070893 36.0767171,21.511653 C36.2407424,21.7165167 36.7057911,22.2472957 37.1101318,22.691164 L37.8453131,23.4981979 L38.5190819,23.4992011 L39.192853,23.5002042 L39.3997809,23.8095768 C39.5135955,23.9797324 39.6350705,24.1885094 39.6697162,24.2735243 C39.7353942,24.4346228 40.3187737,25.4124811 40.3923016,25.4846994 C40.4154749,25.5074603 40.5209312,25.6937005 40.6266405,25.898562 C40.8097464,26.2534218 40.8126889,26.2855932 40.6887149,26.5787776 C40.617152,26.7480337 40.5586007,26.9027969 40.5586007,26.9226967 C40.5586007,26.9425953 40.7355297,27.061985 40.9517677,27.1880031 C42.0659273,27.8372968 43.6910798,29.4281202 43.8835928,30.0578875 C43.9357776,30.2286071 44.0098405,30.3682855 44.0481521,30.3682855 C44.0864659,30.3682855 44.1178236,30.4541129 44.1178236,30.5590119 C44.1178236,30.8761509 44.5701125,31.4894035 45.5150293,32.4534767 L46.4123446,33.3689897 L46.4625565,34.0805251 C46.5116528,34.7762233 46.5197402,34.798126 46.825895,35.0646864 C46.9981249,35.2146312 47.2403606,35.392969 47.3641986,35.4609953 C47.628085,35.6059458 47.7788447,35.8509456 47.7117378,36.025817 C47.6267542,36.2472791 47.4463924,36.2399474 47.1174443,36.0016596 C46.9398901,35.8730367 46.6380911,35.7413554 46.4467907,35.7090369 L46.0989628,35.6502716 L46.2758115,35.9895574 L46.452659,36.3288421 L46.2578176,36.4904745 L46.0629774,36.6521069 L46.4354632,36.983118 C46.640318,37.1651751 46.8358739,37.3157174 46.8700125,37.317659 C47.0115634,37.3256952 46.9159946,37.4868839 46.6908098,37.6199061 C46.5581064,37.6982981 46.4327548,37.8501466 46.4122632,37.9573484 C46.3718685,38.168699 46.4722902,39.3721601 46.535623,39.435484 C46.5569472,39.4568082 46.9789819,39.5485897 47.4734957,39.6394438 C47.9679983,39.7302979 48.3948959,39.8325085 48.4221352,39.8665802 C48.9931094,40.5806513 49.2599384,40.952386 49.9750449,42.0299783 C50.4422559,42.7340248 50.8671896,43.4524728 50.9193465,43.6265317 C50.9714867,43.8005895 51.036205,43.9429496 51.0631344,43.9428894 C51.0900728,43.942827 51.0992636,44.1492634 51.0835536,44.4016373 C51.0607169,44.7686618 51.0071545,44.9128855 50.8159544,45.1222209 C50.4383905,45.5356009 50.2846505,45.9196773 50.2874848,46.4424491 C50.2897475,46.8501012 50.2644486,46.9276617 50.101102,47.0150829 C49.9971839,47.0706984 49.9004659,47.1006272 49.886177,47.081589 C49.8718791,47.0625519 49.683704,46.7955524 49.4679999,46.4882596 C49.2523046,46.1809679 49.0576003,45.9295447 49.0353153,45.9295447 C48.9629377,45.9295447 48.3509602,46.2568443 47.9613978,46.503895 L47.5812971,46.7449492 L47.8093341,46.8959629 C47.9347581,46.9790194 48.2248585,47.1400957 48.4539722,47.2539069 C48.6831048,47.3677192 48.8819387,47.4997193 48.8958208,47.5472384 C48.9097018,47.5947586 48.7994551,47.678193 48.6508332,47.7326448 C48.5022191,47.7870989 48.2623553,47.9042717 48.1178173,47.9930326 C47.8674406,48.146786 47.8592273,48.1681381 47.9441195,48.4447253 C48.0286874,48.7202435 48.0568206,48.7379843 48.4963319,48.7928987 C48.7670831,48.8267263 49.0014487,48.9059097 49.0605707,48.983527 C49.2262445,49.2010502 49.1837299,49.4739614 48.9614798,49.619585 C48.6559759,49.8197586 48.4390223,50.223484 48.2592779,50.9262655 C48.0503014,51.743334 48.1448548,52.4548483 48.5142522,52.8450014 C48.8075135,53.154744 48.816108,53.3339779 48.5461638,53.5108534 C48.2294951,53.7183408 48.2957058,53.7929477 48.7965304,53.7929477 C49.2145537,53.7929477 49.2609527,53.8117005 49.3368625,54.011358 C49.434812,54.2689961 49.4421471,54.259491 48.8928137,54.5869455 C48.4692308,54.8394376 48.4637248,54.8478883 48.4883827,55.2077404 C48.5224745,55.7051778 48.7137748,56.4475035 48.9295057,56.9194013 C49.0279179,57.1346618 49.2096373,57.5342711 49.3333393,57.8074209 C49.4570335,58.0805695 49.7235091,58.527543 49.9255039,58.8006939 C50.1274976,59.0738426 50.3467606,59.3768643 50.4127361,59.4740749 C50.4787206,59.5712844 50.8120623,60.0182578 51.153497,60.4673468 C51.4949395,60.9164346 51.8115447,61.3583679 51.8570665,61.4494182 C51.9773734,61.6900133 52.0095916,60.1717839 51.9061817,59.1352773 C51.8484541,58.5566749 51.8504102,58.2791704 51.912702,58.2040854 C52.1158091,57.9593519 52.4036558,58.1771415 52.451205,58.611538 C52.466671,58.7527456 52.5159133,58.9123707 52.560637,58.9662597 C52.6053597,59.0201509 52.6217953,59.0844032 52.5971552,59.1090444 C52.5208564,59.1853377 52.8667016,60.0857024 53.3053625,60.9527812 C53.7912538,61.9132175 54.2774729,62.7157731 54.7757261,63.379767 L55.1284527,63.8498246 L54.4097695,64.5225848 L53.6910863,65.195346 L54.0363418,65.7011606 C54.2262389,65.9793594 54.3816162,66.2400849 54.3816162,66.2805443 C54.3816162,66.3210115 54.4370701,66.4001513 54.5048668,66.456411 C54.5726446,66.512664 54.6073628,66.5922664 54.5819982,66.6332965 C54.5566437,66.6743265 54.6586603,67.461619 54.8087044,68.3828365 L55.0815187,70.0577751 L55.7475635,70.8581707 L56.4136094,71.6585562 L56.5157698,72.5963965 C56.6361047,73.701022 56.8300221,74.6799915 56.9950974,75.0161554 C57.0599963,75.1483438 57.113105,75.3315768 57.113105,75.4233304 C57.113105,75.515084 57.225679,75.7896248 57.3632721,76.0334142 C57.5635549,76.388302 57.5959725,76.5092677 57.5259032,76.6402056 C57.4151771,76.8470945 57.3014885,76.8415004 56.9822207,76.6134522 L56.9822385,76.6134823 Z" id="path3678"></path>
        </g>
    </g>
</svg>