<?xml version="1.0" encoding="UTF-8"?>
<svg width="55px" height="49px" viewBox="0 0 55 49" version="1.1" xmlns="http://www.w3.org/2000/svg" xmlns:xlink="http://www.w3.org/1999/xlink">
    <title>Logo</title>
    <defs>
        <path d="M8.44648009,15.895632 C9.24644234,18.3046963 9.977372,20.0700353 10.6392691,21.191649 C11.3011661,22.3132627 12.4984005,23.8152825 14.2309722,25.6977084 L19.364139,22.1822782 L19.364139,28.5856392 C19.8584024,28.9452519 20.2857343,29.1863909 20.6461346,29.309056 C21.0065349,29.4317212 21.5930316,29.5356471 22.4056247,29.6208337 L22.4056247,20.2881269 L29.2972985,14.8184748 L29.2972985,29.6208337 C30.08115,29.5363164 30.6610879,29.4323905 31.0371123,29.309056 C31.4131366,29.1857216 31.8852389,28.9445827 32.453419,28.5856392 L32.453419,13.2050945 L39.2420825,7.1149452 L39.2420825,23.6827036 C41.3664793,21.0550742 42.6441624,18.1003312 43.075132,14.8184748 C43.5061015,11.5366183 43.0305632,8.23854528 41.6485171,4.92425564 L47.142041,0 L54,20.2881269 L54,36.4726101 L0,36.4726101 L0,22.1822782 L8.44648009,15.895632 Z" id="path-1"></path>
    </defs>
    <g id="Page-1" stroke="none" stroke-width="1" fill="none" fill-rule="evenodd">
        <g id="Artboard" transform="translate(-135.000000, -39.000000)">
            <g id="Navigation" transform="translate(0.000000, 32.000000)">
                <g id="Logo" transform="translate(135.000000, 8.000000)">
                    <g id="Graph" transform="translate(0.000000, 11.527390)">
                        <mask id="mask-2" fill="white">
                            <use xlink:href="#path-1"></use>
                        </mask>
                        <g id="Mask"></g>
                        <ellipse id="Oval" fill="#0096BD" mask="url(#mask-2)" cx="26.1" cy="12.1117079" rx="23.58" ry="23.6390977"></ellipse>
                    </g>
                    <path d="M26.1,0 C34.7029522,0 42.2298601,4.61863983 46.3481015,11.5174512 L45.0272341,12.7018684 C41.3519858,6.18649126 34.4937908,1.80451128 26.64,1.80451128 C14.9094719,1.80451128 5.4,11.5801886 5.4,23.6390977 C5.4,25.3327125 5.58757269,26.9812909 5.9425273,28.5640769 L3.49481667,30.3875302 C2.86056623,28.2491286 2.52,25.9839846 2.52,23.6390977 C2.52,10.5835846 13.0771256,0 26.1,0 Z" id="Combined-Shape" fill="#00CAEE" fill-rule="nonzero"></path>
                    <path d="M53.7859547,0.0531793627 L49.6992468,12.5875558 L47.536517,10.5074471 L32.0739028,24.2217931 L26.8660175,20.2937255 L18.5768331,27.7501002 L12.8721722,23.4013594 L-1.81850433,33.6327958 L13.3847698,18.520245 L17.6877105,22.1437435 L26.8187306,13.7944372 L31.7275683,17.3292405 L43.7552884,7.20901342 L41.3166066,4.76619097 L53.7859547,0.0531793627 Z" id="Path-2" stroke="#FFFFFF" stroke-width="0.721804511" fill="#00CAED"></path>
                </g>
            </g>
        </g>
    </g>
</svg>